<svg width="37" height="37" viewBox="0 0 37 37" fill="none" xmlns="http://www.w3.org/2000/svg">
<g clip-path="url(#clip0_87_168)">
<path d="M20.35 16.65V9.25H16.65V16.65H9.25V20.35H16.65V27.75H20.35V20.35H27.75V16.65H20.35ZM18.5 37C13.5935 37 8.88795 35.0509 5.41852 31.5815C1.9491 28.1121 0 23.4065 0 18.5C0 13.5935 1.9491 8.88795 5.41852 5.41852C8.88795 1.9491 13.5935 0 18.5 0C23.4065 0 28.1121 1.9491 31.5815 5.41852C35.0509 8.88795 37 13.5935 37 18.5C37 23.4065 35.0509 28.1121 31.5815 31.5815C28.1121 35.0509 23.4065 37 18.5 37Z" fill="#2198DD"/>
</g>
<defs>
<clipPath id="clip0_87_168">
<rect width="37" height="37" fill="white"/>
</clipPath>
</defs>
</svg>
