<svg width="150" height="150" viewBox="0 0 150 150" fill="none" xmlns="http://www.w3.org/2000/svg">
<g clip-path="url(#clip0_80_154)">
<path d="M82.5 67.5V37.5H67.5V67.5H37.5V82.5H67.5V112.5H82.5V82.5H112.5V67.5H82.5ZM75 150C55.1088 150 36.0322 142.098 21.967 128.033C7.90176 113.968 0 94.8912 0 75C0 55.1088 7.90176 36.0322 21.967 21.967C36.0322 7.90176 55.1088 0 75 0C94.8912 0 113.968 7.90176 128.033 21.967C142.098 36.0322 150 55.1088 150 75C150 94.8912 142.098 113.968 128.033 128.033C113.968 142.098 94.8912 150 75 150Z" fill="#ED6BBC"/>
</g>
<defs>
<clipPath id="clip0_80_154">
<rect width="150" height="150" fill="white"/>
</clipPath>
</defs>
</svg>
