<?xml version="1.0" encoding="utf-8"?>
<!-- Generator: Adobe Illustrator 26.3.1, SVG Export Plug-In . SVG Version: 6.00 Build 0)  -->
<svg version="1.1" id="圖層_1" xmlns="http://www.w3.org/2000/svg" xmlns:xlink="http://www.w3.org/1999/xlink" x="0px" y="0px"
	 viewBox="0 0 334 97.8" style="enable-background:new 0 0 334 97.8;" xml:space="preserve">
<style type="text/css">
	.st0{fill:#1A1311;}
</style>
<g id="logo" transform="translate(-98.335 -181.996)">
	<path id="パス_42301" class="st0" d="M428.9,237.4h-0.1c-0.5,0-1,0.1-1.4,0.4l-0.3,0.1l-0.3,0c-0.8,0.1-1.7,0.2-2.5,0.2
		c-4.9,0-7.2-2.1-7.2-6.7v-15.6c0-3.2,1.2-4.4,4.4-4.4h2.8c0.4,0,0.9,0,1.4,0l0.2,0l0.2,0.1c0.7,0.2,1.3,0.2,2,0l0.2,0
		c0.1,0,0.1,0,0.2,0l0.3-0.1c2.4-1,3.7-3.7,3-6.2c-0.3-1.1-1-2-2-2.5c-0.8-0.4-1.7-0.5-2.5-0.3l-1,0.1c-0.6,0-1.3,0.1-1.9,0.1h-2.9
		c-3.2,0-4.3-1.2-4.3-4.4c0-1.2,0.1-3.2,0.1-5c0-1.2,0.1-2.2,0.1-2.7l0-0.2c0-2.2-2.3-4.1-5.1-4.3c-2.8-0.1-5.3,1.6-5.5,3.9l0,0.3
		c0,0.1,0,0.3,0,0.4c0,0.4,0,1.2,0.1,2l0.6,0l-0.6,0.1c0,1.3,0.1,3,0.1,4.4v1.4c0,2.4-1.4,3.9-3.7,3.9c-0.3,0-0.6,0-0.9,0l-0.2,0
		l-0.2-0.1c-0.7-0.2-1.5-0.2-2.2,0l-0.1,0c-1.3,0.4-2.4,1.4-2.9,2.6c-1.2,2.2-0.4,4.9,1.7,6.1c0.9,0.4,1.9,0.5,2.8,0.2l0.2-0.1h0.6
		c2.4,0,4.9,0.5,4.9,4.4v17.9c0,9.5,4.2,13.6,13.9,13.6c2.2,0,4.3-0.2,6.4-0.7c0.3-0.1,0.6-0.1,0.9-0.3c0.1,0,0.1-0.1,0.2-0.1
		l0.3-0.4l0.6-0.1c1.8-0.5,3.1-2.1,3.1-4C432.4,239.4,430.9,237.5,428.9,237.4"/>
	<path id="パス_42302" class="st0" d="M290.3,255.5l-0.4,0.4c-23.1,22.9-60.3,22.8-83.3-0.2c0,0,0,0-0.1-0.1l-0.4-0.4
		c-0.1-0.1-0.3-0.3-0.4-0.4c-2.1-1.7-5.1-1.3-6.8,0.7c-1.7,2.1-1.3,5.1,0.7,6.8c0,0,0.1,0.1,0.1,0.1c6.9,5.5,14.7,9.8,23,12.9
		c2.1,0.7,4.1,1.4,6.2,1.9c1,0.3,2.1,0.5,3.1,0.8c1.1,0.2,2.1,0.4,3.2,0.6c4.2,0.8,8.5,1.2,12.8,1.1c4.3,0,8.6-0.3,12.8-1.1
		c4.3-0.7,8.4-1.9,12.5-3.3c8.3-3.1,16-7.4,23-12.9c0.1-0.1,0.3-0.2,0.4-0.4c1.8-1.8,1.8-4.7,0-6.5S292.2,253.8,290.3,255.5"/>
	<path id="パス_42303" class="st0" d="M174.2,224.8c0,8.3-4.9,13.8-12.3,13.8c-6.6,0-11.3-5.4-11.3-12.8c0-8.5,4.7-14,12.1-14
		C169.4,211.8,174.2,217.3,174.2,224.8 M163.4,201.8c-14.8,0-23.9,9.1-23.9,23.9c0,12.7,9.1,21.6,22,21.6c14.7,0,23.9-9.1,23.9-23.7
		C185.4,210.8,176.4,201.8,163.4,201.8"/>
	<path id="パス_42304" class="st0" d="M201.1,243.3l0-0.3l0.1-0.2c0-0.1,0.1-0.1,0.1-0.2c0-0.2,0-0.3,0-0.5c0-0.1,0-0.5,0-1.1
		l0-0.3c-0.1-1.7-0.1-4.6-0.1-7.1v-14.6c-0.2-2.2,0.9-4.3,2.9-5.3c2.1-1.3,4.5-2,6.9-1.9c5.4,0,8.9,3.4,8.9,8.7v13.1
		c0,2.6-0.1,5.6-0.1,7.2v0.1c0,0.5,0,0.9,0,1.1l0,0.4c0,0.1,0,0.3,0,0.4c0,2.1,2.5,3.9,5.5,3.9c2.8,0,5.2-1.6,5.5-3.6l0-0.2l0.1-0.2
		c0.1-0.2,0.1-0.4,0.1-0.6c0-0.1,0-0.5,0-1.1l0-0.3c-0.1-1.7-0.1-4.6-0.1-7.1V217c0-13.7-10.2-15.2-14.5-15.2c-4,0-7.8,1.2-11.1,3.5
		c-0.6,0.5-1.4,0.9-2.3,0.9c-0.6,0-2.2,0-2.5-3.4c0-0.3,0-0.5,0-0.6c0-0.1,0-0.1,0-0.2l0,0l-0.1-0.4c-0.4-1.9-2.5-3.2-4.9-3.2
		c-2.7,0-4.9,1.8-4.9,3.9c0,0.2,0,0.4,0.1,0.6l0.1,2.1c0.1,2.9,0.1,7.8,0.1,10.3v18.3c0,2.5-0.1,5.4-0.1,7.2l0,1.4l0,0.2
		c0,0.2-0.1,0.3-0.1,0.5c0,2.1,2.5,3.9,5.5,3.9C198.9,246.8,200.9,245,201.1,243.3"/>
	<path id="パス_42305" class="st0" d="M304.5,242.4l0-0.2c0-0.1,0-0.5,0-1.1l0-0.3c0-1.6-0.1-4.6-0.1-7.2V217
		c0-13.7-10.2-15.2-14.5-15.2c-4,0-7.8,1.2-11.1,3.5c-0.6,0.5-1.4,0.9-2.3,0.9c-1.8,0-2.3-1.7-2.5-3.2l0-0.2l0-0.2
		c0-0.1,0-0.2,0-0.3c0-2.1-2.3-3.9-4.9-3.9c-2.4,0-4.5,1.4-4.9,3.3l-0.1,0.2c0,0,0,0.1,0,0.1c0,0.2,0,0.4,0,0.6c0,0.2,0,0.9,0,1.9
		l0,0.4c0.1,2.9,0.1,7.8,0.1,10.4v18.3c0,2.6-0.1,5.6-0.1,7.2l0,0.3c0,0.5,0,0.9,0,1.1c0,0.2,0,0.4,0,0.6l0.1,0.3
		c0.2,2,2.6,3.6,5.5,3.6c1.6,0,3.3-0.5,4.5-1.7c0.6-0.6,1-1.4,1-2.3l0-0.3l0-0.2c0-0.1,0-0.1,0-0.2c0-0.1,0-0.5,0-1.1l0-0.3
		c-0.1-1.7-0.1-4.6-0.1-7.1v-14.6c-0.2-2.2,0.9-4.3,2.9-5.3c2.1-1.3,4.5-2,6.9-1.9c5.4,0,8.9,3.4,8.9,8.7v13.1
		c0,2.5-0.1,5.4-0.1,7.2l0,0.3c0,0.5,0,0.9,0,1.1c0,0.2,0,0.3,0,0.5c0,0,0,0.1,0,0.1l0.1,0.2l0,0.2c0.2,2,2.6,3.6,5.5,3.6
		c3,0,5.5-1.7,5.5-3.9c0-0.1,0-0.2,0-0.4L304.5,242.4z"/>
	<path id="パス_42306" class="st0" d="M390.7,204l-0.2-0.1c-0.3-0.2-0.5-0.3-0.8-0.4c-3.1-1-6.3-1.6-9.6-1.6
		c-15.1,0-24.5,9.4-24.5,24.6c0,4.9,1.6,20.9,21.8,20.9c3.9,0,7.9-0.8,11.5-2.3l0.2-0.1c2.2-0.6,3.5-2.9,2.9-5.2
		c-0.5-1.8-2.2-3.1-4.1-3.1c-0.3,0-0.5,0-0.8,0.1l-0.1,0c-0.1,0-0.2,0-0.3,0.1l-0.1,0c-0.2,0.1-0.5,0.2-0.7,0.3l-0.1,0.1
		c-2.1,0.8-4.2,1.2-6.5,1.2c-7.4,0-12.6-5-12.6-12.3c0-8.3,5.8-14.1,14-14.1c1.8,0,3.7,0.3,5.4,1l0.3,0.1c0.1,0.1,0.3,0.1,0.5,0.2
		c0,0,0.3,0.1,0.3,0.1c0.1,0,0.2,0,0.3,0l0.5,0c1.9-0.1,3.7-1.3,4.5-3.1C393.5,207.8,392.8,205,390.7,204"/>
	<path id="パス_42307" class="st0" d="M135.7,201.3l-0.2-0.1c-0.3-0.2-0.6-0.3-0.9-0.4c-3.3-1.1-6.7-1.7-10.2-1.7
		c-16.1,0-26.1,10-26.1,26.1c0,5.2,1.7,22.2,23.1,22.2c4.2,0,8.3-0.8,12.2-2.4l0.3-0.1c2.4-0.7,3.7-3.2,3-5.5
		c-0.6-2.2-2.8-3.5-5.1-3.1l-0.1,0c-0.1,0-0.2,0.1-0.3,0.1l-0.1,0c-0.2,0.1-0.5,0.2-0.7,0.3l-0.1,0.1c-2.2,0.9-4.5,1.3-6.9,1.3
		c-7.9,0-13.4-5.4-13.4-13c0-8.8,6.1-15,14.9-15c2,0,3.9,0.4,5.7,1.1l0.3,0.1c0.2,0.1,0.3,0.1,0.5,0.2c0,0,0.3,0.1,0.3,0.1
		c0.1,0,0.2,0,0.3,0l0.5,0c2.1-0.1,3.9-1.4,4.7-3.3C138.6,205.4,137.9,202.4,135.7,201.3"/>
	<path id="パス_42308" class="st0" d="M322,216.3c1.8-3.8,5.6-6.1,9.8-6c6.2,0,8.1,3.8,8.6,6.1c0.2,0.6,0.2,1.2,0.2,1.8
		c0,2.6-2.2,3.1-4,3.1h-11.6c-3.3,0-3.8-1.7-3.8-2.7C321.4,217.8,321.6,217,322,216.3 M347.1,236.1c-0.2,0-0.3,0-0.5,0l-0.3,0
		c-0.1,0-0.2,0-0.3,0l-0.3,0.1c-0.9,0.2-1.7,0.5-2.4,1l-0.2,0.1l-0.2,0.1c-2.9,1-5.9,1.4-8.9,1.4c-6.3,0-10.4-2-12.4-6.2l0-0.1
		c-0.3-0.7-0.5-1.4-0.6-2.2c0-1,0.5-2.8,3.8-2.8h20.4c0.3,0,1.4,0,1.6,0c1.7,0,2.9-0.6,3.3-1.5c0.3-0.6,0.4-1,0.4-3.3
		c0-13.9-6-21-17.9-21c-13.4,0-22.5,9.6-22.5,23.9c0,8.1,3,21.6,23,21.6c5.4,0,10.8-1.1,15.7-3.3c0.3-0.1,0.5-0.3,0.7-0.4l0.3-0.2
		c1.5-0.5,2.6-1.8,2.7-3.4C352.6,237.9,350.1,236.1,347.1,236.1"/>
	<path id="パス_42309" class="st0" d="M428.9,237.4h-0.1c-0.5,0-1,0.1-1.4,0.4l-0.3,0.1l-0.3,0c-0.8,0.1-1.7,0.2-2.5,0.2
		c-4.9,0-7.2-2.1-7.2-6.7v-15.6c0-3.2,1.2-4.4,4.4-4.4h2.8c0.4,0,0.9,0,1.4,0l0.2,0l0.2,0.1c0.7,0.2,1.3,0.2,2,0l0.2,0
		c0.1,0,0.1,0,0.2,0l0.3-0.1c2.4-1,3.7-3.7,3-6.2c-0.3-1.1-1-2-2-2.5c-0.8-0.4-1.7-0.5-2.5-0.3l-1,0.1c-0.6,0-1.3,0.1-1.9,0.1h-2.9
		c-3.2,0-4.3-1.2-4.3-4.4c0-1.2,0.1-3.2,0.1-5c0-1.2,0.1-2.2,0.1-2.7l0-0.2c0-2.2-2.3-4.1-5.1-4.3c-2.8-0.1-5.3,1.6-5.5,3.9l0,0.3
		c0,0.1,0,0.3,0,0.4c0,0.4,0,1.2,0.1,2l0.6,0l-0.6,0.1c0,1.3,0.1,3,0.1,4.4v1.4c0,2.4-1.4,3.9-3.7,3.9c-0.3,0-0.6,0-0.9,0l-0.2,0
		l-0.2-0.1c-0.7-0.2-1.5-0.2-2.2,0l-0.1,0c-1.3,0.4-2.4,1.4-2.9,2.6c-1.2,2.2-0.4,4.9,1.7,6.1c0.9,0.4,1.9,0.5,2.8,0.2l0.2-0.1h0.6
		c2.4,0,4.9,0.5,4.9,4.4v17.9c0,9.5,4.2,13.6,13.9,13.6c2.2,0,4.3-0.2,6.4-0.7c0.3-0.1,0.6-0.1,0.9-0.3c0.1,0,0.1-0.1,0.2-0.1
		l0.3-0.4l0.6-0.1c1.8-0.5,3.1-2.1,3.1-4C432.4,239.4,430.9,237.5,428.9,237.4"/>
</g>
</svg>
