<svg width="780" height="703" viewBox="0 0 780 703" fill="none" xmlns="http://www.w3.org/2000/svg">
<path d="M539 290H275.39C255.773 289.998 236.347 294.352 218.222 302.813C200.097 311.274 183.628 323.677 169.756 339.312C155.884 354.948 144.88 373.51 137.372 393.94C129.864 414.37 126 436.266 126 458.379V628.185C126 633.44 127.852 638.48 131.149 642.196C134.446 645.912 138.917 648 143.579 648H521.421C526.083 648 530.554 645.912 533.851 642.196C537.148 638.48 539 633.44 539 628.185V290Z" fill="#FA9999"/>
<path d="M539 290H295V648H521.477C526.124 648 530.581 645.912 533.868 642.196C537.154 638.48 539 633.44 539 628.185V290Z" fill="#ED6BBC"/>
<path d="M539.506 290C519.873 289.998 500.432 294.352 482.293 302.813C464.155 311.274 447.673 323.677 433.79 339.312C419.907 354.948 408.894 373.51 401.381 393.94C393.867 414.37 390 436.266 390 458.379V628.185C390 633.44 391.854 638.48 395.153 642.196C398.452 645.912 402.927 648 407.593 648H671.407C676.073 648 680.548 645.912 683.847 642.196C687.146 638.48 689 633.44 689 628.185V458.379C689 413.722 673.25 370.894 645.214 339.317C617.179 307.74 579.154 290 539.506 290Z" fill="#259EE4"/>
<path d="M539 290V648H671.347C676.029 648 680.519 645.912 683.83 642.196C687.14 638.48 689 633.44 689 628.185V458.379C689 413.722 673.196 370.894 645.066 339.317C616.936 307.74 578.782 290 539 290Z" fill="#2198DD"/>
<path d="M163.626 457.994H123.124C119.113 457.994 115.266 456.19 112.43 452.977C109.593 449.765 108 445.408 108 440.865V349.135C108 344.592 109.593 340.235 112.43 337.023C115.266 333.81 119.113 332.006 123.124 332.006H163.626C170.993 331.893 178.306 333.44 185.141 336.555C191.977 339.67 198.197 344.293 203.442 350.153C208.687 356.014 212.851 362.997 215.694 370.695C218.536 378.394 220 386.655 220 395C220 403.345 218.536 411.606 215.694 419.305C212.851 427.003 208.687 433.986 203.442 439.847C198.197 445.707 191.977 450.33 185.141 453.445C178.306 456.56 170.993 458.107 163.626 457.994Z" fill="#E8AFA3"/>
<path d="M673.876 457.994H633.374C626.007 458.107 618.694 456.56 611.859 453.445C605.023 450.33 598.803 445.707 593.558 439.847C588.313 433.986 584.149 427.003 581.306 419.305C578.464 411.606 577 403.345 577 395C577 386.655 578.464 378.394 581.306 370.695C584.149 362.997 588.313 356.014 593.558 350.153C598.803 344.293 605.023 339.67 611.859 336.555C618.694 333.44 626.007 331.893 633.374 332.006H673.876C677.887 332.006 681.734 333.81 684.57 337.023C687.407 340.235 689 344.592 689 349.135V440.865C689 445.408 687.407 449.765 684.57 452.977C681.734 456.19 677.887 457.994 673.876 457.994Z" fill="#FFDCCD"/>
<path d="M292.512 290C269.865 290.002 247.726 283.318 228.895 270.793C210.063 258.267 195.386 240.463 186.718 219.631C178.05 198.8 175.782 175.878 180.2 153.763C184.617 131.648 195.522 111.334 211.536 95.3899C227.55 79.446 247.953 68.5883 270.165 64.1899C292.377 59.7916 315.4 62.0502 336.323 70.6801C357.245 79.3099 375.128 93.9235 387.708 112.672C400.289 131.422 407.002 153.464 407 176.012C406.965 206.233 394.892 235.206 373.429 256.575C351.966 277.945 322.865 289.965 292.512 290Z" fill="#FFECE3"/>
<path d="M542.512 290C519.865 290.002 497.726 283.318 478.895 270.793C460.063 258.267 445.386 240.463 436.718 219.631C428.05 198.8 425.782 175.878 430.2 153.763C434.617 131.648 445.522 111.334 461.536 95.3899C477.55 79.446 497.953 68.5883 520.165 64.1899C542.377 59.7916 565.4 62.0502 586.323 70.6801C607.245 79.3099 625.128 93.9235 637.708 112.672C650.289 131.422 657.002 153.464 657 176.012C656.962 206.232 644.888 235.203 623.425 256.572C601.963 277.94 572.864 289.962 542.512 290Z" fill="#E8AFA3"/>
<path d="M218.988 522H126V628.174C126 633.432 127.854 638.475 131.154 642.193C134.455 645.911 138.931 648 143.598 648H219V522H218.988Z" fill="#FFECE3"/>
<path d="M596 522H689V628.174C689 633.432 687.146 638.475 683.845 642.193C680.544 645.911 676.068 648 671.4 648H596V522Z" fill="#D19188"/>
</svg>
