<svg width="573" height="573" viewBox="0 0 573 573" fill="none" xmlns="http://www.w3.org/2000/svg">
<g clip-path="url(#clip0_66_161)">
<mask id="mask0_66_161" style="mask-type:luminance" maskUnits="userSpaceOnUse" x="0" y="0" width="573" height="573">
<path d="M573 0H0V573H573V0Z" fill="white"/>
</mask>
<g mask="url(#mask0_66_161)">
<path d="M286.496 22.3855C140.633 22.3855 22.3855 140.633 22.3855 286.496C22.3139 335.941 36.1846 384.404 62.4058 426.323L22.3855 550.615L146.677 510.586C188.59 536.814 237.052 550.688 286.496 550.615C432.367 550.615 550.615 432.367 550.615 286.496C550.615 140.625 432.367 22.3855 286.496 22.3855Z" stroke="#ED6BBC" stroke-width="53.33" stroke-linecap="round" stroke-linejoin="round"/>
<path d="M314.48 286.496C314.482 292.031 312.842 297.442 309.768 302.045C306.694 306.648 302.324 310.236 297.211 312.356C292.098 314.475 286.471 315.03 281.042 313.951C275.613 312.873 270.626 310.208 266.711 306.295C262.797 302.382 260.131 297.395 259.05 291.967C257.97 286.538 258.524 280.911 260.641 275.797C262.759 270.683 266.346 266.312 270.948 263.237C275.55 260.162 280.961 258.52 286.496 258.52C293.916 258.52 301.033 261.467 306.281 266.714C311.528 271.96 314.478 279.075 314.48 286.496Z" fill="#ED6BBC"/>
<path d="M426.391 286.496C426.392 292.031 424.752 297.443 421.678 302.046C418.604 306.649 414.233 310.237 409.119 312.356C404.006 314.475 398.378 315.03 392.949 313.951C387.52 312.871 382.533 310.206 378.619 306.292C374.705 302.378 372.039 297.391 370.96 291.962C369.88 286.532 370.435 280.905 372.554 275.791C374.673 270.678 378.262 266.307 382.865 263.233C387.468 260.159 392.88 258.519 398.415 258.52C405.834 258.522 412.948 261.471 418.194 266.717C423.44 271.962 426.388 279.077 426.391 286.496Z" fill="#ED6BBC"/>
<path d="M202.561 286.496C202.561 292.029 200.92 297.438 197.846 302.038C194.772 306.639 190.403 310.224 185.291 312.342C180.179 314.459 174.554 315.013 169.127 313.934C163.701 312.854 158.716 310.19 154.803 306.278C150.891 302.365 148.227 297.38 147.147 291.954C146.068 286.527 146.622 280.902 148.739 275.79C150.857 270.678 154.442 266.309 159.043 263.235C163.643 260.161 169.052 258.52 174.585 258.52C182.004 258.522 189.119 261.471 194.364 266.717C199.61 271.962 202.559 279.077 202.561 286.496Z" fill="#ED6BBC"/>
</g>
</g>
<defs>
<clipPath id="clip0_66_161">
<rect width="573" height="573" fill="white"/>
</clipPath>
</defs>
</svg>
