<svg width="130" height="124" viewBox="0 0 130 124" fill="none" xmlns="http://www.w3.org/2000/svg">
<path d="M0.944645 8.83561C-0.52857 3.31775 5.13929 -1.39654 10.2982 1.06239L125.461 55.9677C130.55 58.3892 130.55 65.632 125.461 68.0535L10.3036 122.964C5.14464 125.418 -0.523213 120.703 0.950002 115.186L15.1786 62.0106L0.944645 8.83561ZM22.4161 66.0285L9.4625 114.457L119.471 62.0106L9.4625 9.56418L22.4161 57.9927H82.4107C83.4763 57.9927 84.4983 58.4161 85.2518 59.1696C86.0053 59.923 86.4286 60.945 86.4286 62.0106C86.4286 63.0762 86.0053 64.0982 85.2518 64.8517C84.4983 65.6052 83.4763 66.0285 82.4107 66.0285H22.4161Z" fill="white"/>
</svg>
